<svg width="201" height="173" viewBox="0 0 201 173" fill="none" xmlns="http://www.w3.org/2000/svg">
<rect x="27.9919" y="17.5814" width="9.21266" height="150.826" fill="#721313"/>
<rect x="0.888672" y="25.2164" width="70.4673" height="5.67828" transform="rotate(-20.4464 0.888672 25.2164)" fill="#721313"/>
<line x1="42.4018" y1="25.4634" x2="94.4368" y2="72.2835" stroke="black"/>
<line x1="41.8317" y1="100.025" x2="93.8666" y2="72.2143" stroke="black"/>
<line x1="42.4304" y1="100.122" x2="106.786" y2="168.064" stroke="black"/>
<path d="M137.786 113.316C137.786 104.411 135.342 95.7798 130.871 88.896C126.399 82.0122 120.177 77.2995 113.264 75.5622C106.351 73.8249 99.1753 75.1699 92.9592 79.3678C86.7431 83.5657 81.8713 90.3579 79.174 98.5852C76.4767 106.812 76.1208 115.968 78.1668 124.49C80.2128 133.012 84.5343 140.375 90.3948 145.322C96.2553 150.269 103.292 152.497 110.307 151.624C117.321 150.751 123.879 146.832 128.863 140.535C128.863 140.535 105.228 148.843 92.9592 135.516C80.6909 122.19 90.3948 111.318 90.3948 111.318L137.786 113.316Z" fill="#721313"/>
<path d="M130.87 104.334C130.969 99.2526 128.872 92.8213 125.234 89.1555C121.596 85.4897 116.322 81.795 111.077 81.6922C105.832 81.5894 100.717 82.8763 96.9374 86.3968C93.1584 89.9173 86.8044 99.0347 91.2511 103.932L111.094 103.947L130.87 104.334Z" fill="#FCFCFC"/>
<rect x="141.427" y="72.6552" width="5.034" height="97.6523" fill="#721313"/>
<rect x="164.799" y="72.6552" width="5.034" height="97.6523" fill="#721313"/>
<line x1="145.929" y1="72.8438" x2="165.289" y2="170.21" stroke="black"/>
<line x1="171.926" y1="72.6542" x2="172.124" y2="170.306" stroke="black"/>
<path d="M171.71 70.3115C179.425 70.3245 186.814 75.728 192.253 85.3334C197.692 94.9388 200.735 107.959 200.712 121.53C200.69 135.101 197.603 148.111 192.132 157.698C186.66 167.286 179.253 172.664 171.538 172.651L171.541 170.839C178.983 170.852 186.128 165.664 191.406 156.416C196.683 147.169 199.66 134.619 199.682 121.529C199.704 108.438 196.769 95.8785 191.523 86.6132C186.277 77.3479 179.149 72.1357 171.707 72.1232L171.71 70.3115Z" fill="#E23939"/>
</svg>
